HIERARCHY
ROOT Hips
{
	OFFSET -0.179506 -22.333345 2.821913
	CHANNELS 6 Xposition Yposition Zposition Zrotation Yrotation Xrotation 
	JOINT LeftUpLeg
	{
		OFFSET 6.951974 -9.140623 -0.681533
		CHANNELS 3 Zrotation Yrotation Xrotation
		JOINT LeftLeg
		{
			OFFSET 3.427654 -37.519855 -0.449580
			CHANNELS 3 Zrotation Yrotation Xrotation
			JOINT LeftFoot
			{
				OFFSET -1.359570 -39.796059 -4.369333
				CHANNELS 3 Zrotation Yrotation Xrotation
				JOINT LeftToe
				{
					OFFSET 2.635814 -5.579078 11.928840
					CHANNELS 3 Zrotation Yrotation Xrotation
					End Site
					{
						OFFSET 0.000000 0.000000 0.000000
					}
				}
			}
		}
	}
	JOINT RightUpLeg
	{
		OFFSET -6.767048 -9.052170 -0.431982
		CHANNELS 3 Zrotation Yrotation Xrotation
		JOINT RightLeg
		{
			OFFSET -3.829005 -38.256897 -0.885003
			CHANNELS 3 Zrotation Yrotation Xrotation
			JOINT RightFoot
			{
				OFFSET 1.577377 -39.841461 -4.231180
				CHANNELS 3 Zrotation Yrotation Xrotation
				JOINT RightToe
				{
					OFFSET -2.537174 -4.814398 12.334795
					CHANNELS 3 Zrotation Yrotation Xrotation
					End Site
					{
						OFFSET 0.000000 0.000000 0.000000
					}
				}
			}
		}
	}
	JOINT Spine
	{
		OFFSET -0.253288 10.896323 -2.669631
		CHANNELS 3 Zrotation Yrotation Xrotation
		JOINT Spine1
		{
			OFFSET 0.548704 13.518043 0.109247
			CHANNELS 3 Zrotation Yrotation Xrotation
			JOINT Spine2
			{
				OFFSET 0.145701 5.292222 2.542457
				CHANNELS 3 Zrotation Yrotation Xrotation
				JOINT Neck
				{
					OFFSET -0.277840 21.387037 -4.285703
					CHANNELS 3 Zrotation Yrotation Xrotation
					JOINT Head
					{
						OFFSET 0.515184 6.496960 5.134897
						CHANNELS 3 Zrotation Yrotation Xrotation
						End Site
						{
							OFFSET 0.000000 0.000000 0.000000
						}
					}
				}
				JOINT LeftShoulder
				{
					OFFSET 7.884473 12.174932 -3.408961
					CHANNELS 3 Zrotation Yrotation Xrotation
					JOINT LeftArm
					{
						OFFSET 9.097692 3.046888 -0.886815
						CHANNELS 3 Zrotation Yrotation Xrotation
						JOINT LeftForeArm
						{
							OFFSET 25.961220 -1.277207 -2.745643
							CHANNELS 3 Zrotation Yrotation Xrotation
							JOINT LeftHand
							{
								OFFSET 24.923361 0.898606 -0.117091
								CHANNELS 3 Zrotation Yrotation Xrotation
								End Site
								{
									OFFSET 0.000000 0.000000 0.000000
								}
							}
						}
					}
				}
				JOINT RightShoulder
				{
					OFFSET -8.175920 11.883285 -3.861528
					CHANNELS 3 Zrotation Yrotation Xrotation
					JOINT RightArm
					{
						OFFSET -9.601238 3.255117 -0.914307
						CHANNELS 3 Zrotation Yrotation Xrotation
						JOINT RightForeArm
						{
							OFFSET -25.374195 -1.332924 -2.140099
							CHANNELS 3 Zrotation Yrotation Xrotation
							JOINT RightHand
							{
								OFFSET -25.529810 0.777228 -0.555919
								CHANNELS 3 Zrotation Yrotation Xrotation
								End Site
								{
									OFFSET 0.000000 0.000000 0.000000
								}
							}
						}
					}
				}
			}
		}
	}
}
MOTION
Frames: 7
Frame Time: 0.033333
48.593464 -46.551315 80.115547 -122.281075 6.068520 74.533207 3.555988 -3.562512 -33.951213 -9.866383 7.860503 34.674880 5.716401 6.798011 -1.304036 nan nan nan -7.196461 -2.963406 -36.093018 0.623141 -18.876536 88.577852 -0.469832 -1.778751 -6.407134 nan nan nan 1.434693 4.643627 27.898750 6.585959 1.537163 7.356811 4.861786 -1.295557 1.479448 6.394433 -21.815683 5.259751 8.512648 -20.461283 -23.806516 -19.713890 4.143335 -3.270430 -74.712588 6.470119 17.775073 14.661818 -34.200421 1.360606 2.697628 -21.574846 -12.550986 21.004423 6.085701 -6.932562 48.205655 -4.156218 11.159395 -24.587155 59.504003 -26.300473 -10.499279 23.798243 -41.146449 
47.140236 -45.149525 79.493874 -122.699253 6.285943 74.386203 3.267890 -2.855555 -34.580870 -9.847173 7.368217 38.080240 7.310119 6.952814 -4.175166 nan nan nan -7.348646 -3.018531 -37.473176 0.177025 -18.652547 88.094753 -1.056900 -2.880427 -8.528574 nan nan nan 1.576685 4.266167 28.461548 6.444773 1.833026 6.375711 4.865607 -1.289037 2.242009 6.631582 -21.481643 4.387097 8.072256 -20.447040 -23.091030 -19.289670 4.290427 -3.374729 -74.748738 7.096391 17.549343 14.327092 -33.234443 2.483722 1.512300 -20.870860 -11.783965 20.719759 6.476067 -7.087607 47.978109 -3.551742 11.177820 -24.141217 59.009251 -25.946301 -9.798847 23.720320 -40.917398 
45.745380 -43.746189 78.863693 -123.057536 6.517003 74.251016 2.969813 -2.164077 -35.912911 -9.106743 7.106208 42.599688 8.319974 8.517113 -7.070716 nan nan nan -7.517828 -3.031747 -38.904383 -0.038770 -18.389925 86.827276 -1.830222 -3.592613 -10.465105 nan nan nan 1.780057 3.990575 29.115078 6.339335 2.006960 5.417634 4.828592 -1.309322 2.977955 6.768885 -21.405979 3.418347 7.772857 -20.346750 -22.264658 -19.094343 4.385665 -3.355596 -74.479289 7.596060 17.437890 13.947222 -32.298540 3.959970 0.882872 -20.516147 -11.736011 20.513054 6.879830 -7.436584 47.749676 -2.964381 11.280517 -23.632891 58.292398 -25.189637 -9.478932 23.728709 -40.787448 
44.377827 -42.404949 78.244423 -123.227865 6.379181 74.239834 2.879390 -2.319566 -37.795888 -8.327464 7.571590 47.424171 8.321515 9.292823 -8.844787 nan nan nan -8.188823 -3.159046 -40.348104 0.063368 -18.233969 85.033553 -1.837806 -3.817500 -11.687859 nan nan nan 1.806804 3.889129 29.717342 6.132675 1.884028 4.770761 4.721978 -1.390416 3.367523 6.775288 -21.462942 2.528099 7.843253 -20.069262 -21.378405 -19.085182 4.402522 -3.323691 -73.874758 8.086463 17.603724 13.680746 -31.343725 5.399629 0.113662 -20.403085 -11.861774 20.770255 7.272548 -7.766557 47.152249 -2.293508 11.514560 -23.023473 57.542754 -24.561154 -9.394360 23.650575 -40.124381 
43.096260 -41.168060 77.691612 -123.056947 5.781340 74.395417 3.177964 -3.689404 -39.871721 -7.769721 8.977771 51.593364 7.525884 9.510015 -9.279108 nan nan nan -9.373735 -3.479957 -41.791384 0.401651 -18.001955 82.699848 -1.715363 -3.771797 -12.329907 nan nan nan 1.486799 4.123139 30.328744 5.937628 1.438832 4.521006 4.714966 -1.574351 3.191021 6.493179 -21.775511 1.984621 8.328267 -19.474248 -20.875980 -19.323488 4.342069 -3.305086 -73.000522 8.309002 18.139493 13.573233 -30.033845 6.179218 -0.910855 -20.229194 -11.737151 21.365854 7.565532 -8.111242 46.075837 -1.491155 11.996889 -22.684662 56.671994 -24.247897 -8.189389 23.476109 -39.003787 
41.908661 -39.997227 77.256409 -122.549086 5.019094 74.480140 4.080528 -6.026665 -41.606797 -7.631216 11.142706 54.732069 6.283562 9.741728 -9.200300 nan nan nan -10.697944 -3.900924 -42.833332 0.788643 -17.834224 79.804794 -1.550712 -3.825506 -12.682945 nan nan nan 1.084203 4.498068 31.198703 5.790570 0.754034 4.411458 4.778588 -1.793799 2.766808 6.105397 -21.993001 1.626198 9.009816 -18.927286 -20.740701 -19.624339 4.149691 -3.158195 -72.020087 8.280918 18.860514 13.409067 -28.674640 6.496676 -1.140994 -19.968043 -11.197144 22.156438 8.038609 -8.133209 45.202637 -0.765349 12.391090 -22.803607 55.784761 -25.804580 -8.204805 23.499681 -37.886495 
40.769760 -38.866272 76.933517 -121.774332 4.529921 74.331582 4.677170 -7.672106 -42.514232 -7.886874 12.523512 56.825079 5.410352 10.059181 -9.441646 nan nan nan -11.663822 -4.603232 -43.151929 1.242293 -17.677325 76.201063 -1.337050 -3.935956 -12.888569 nan nan nan 1.050825 4.647629 32.391382 5.662514 0.074156 4.231169 4.828293 -1.971521 2.449651 5.861112 -22.326400 1.081099 9.433711 -18.500470 -20.743730 -19.964052 3.571128 -2.753992 -71.135954 8.067927 19.363252 13.616546 -27.418932 6.713142 -1.808784 -20.002058 -11.007600 22.694528 8.684306 -8.044731 44.339775 -0.186719 12.483479 -23.307335 54.834851 -26.340212 -7.221150 23.529374 -37.173501 
